<?xml version="1.0" encoding="UTF-8"?>
<!DOCTYPE svg PUBLIC "-//W3C//DTD SVG 1.1//EN" "http://www.w3.org/Graphics/SVG/1.1/DTD/svg11.dtd">
<svg xmlns="http://www.w3.org/2000/svg" version="1.1" width="500px" height="500px" style="shape-rendering:geometricPrecision; text-rendering:geometricPrecision; image-rendering:optimizeQuality; fill-rule:evenodd; clip-rule:evenodd" xmlns:xlink="http://www.w3.org/1999/xlink">
<g><path style="opacity:1" fill="#fefeff" d="M -0.5,-0.5 C 166.167,-0.5 332.833,-0.5 499.5,-0.5C 499.5,166.167 499.5,332.833 499.5,499.5C 332.833,499.5 166.167,499.5 -0.5,499.5C -0.5,332.833 -0.5,166.167 -0.5,-0.5 Z"/></g>
<g><path style="opacity:1" fill="#8278ff" d="M 107.5,236.5 C 106.849,235.909 106.182,235.243 105.5,234.5C 104.337,235.056 103.337,235.389 102.5,235.5C 95.4287,213.3 80.4287,204.8 57.5,210C 46.6135,215.259 39.6135,223.759 36.5,235.5C 34.8333,234.167 33.1667,234.167 31.5,235.5C 34.0314,221.124 42.0314,210.958 55.5,205C 74.6999,199.188 90.1999,204.355 102,220.5C 104.936,225.475 106.769,230.808 107.5,236.5 Z"/></g>
<g><path style="opacity:1" fill="#fcfbff" d="M 102.5,235.5 C 102.818,240.659 102.152,245.659 100.5,250.5C 96.544,262.289 88.544,269.789 76.5,273C 65.0818,274.913 55.0818,272.08 46.5,264.5C 39.2068,256.29 35.8735,246.623 36.5,235.5C 39.6135,223.759 46.6135,215.259 57.5,210C 80.4287,204.8 95.4287,213.3 102.5,235.5 Z"/></g>
<g><path style="opacity:1" fill="#4531ff" d="M 135.5,221.5 C 142.589,221.116 149.589,221.616 156.5,223C 161.211,227.14 162.711,232.306 161,238.5C 159.437,241.728 156.937,243.895 153.5,245C 149.179,245.499 144.846,245.666 140.5,245.5C 140.5,250.5 140.5,255.5 140.5,260.5C 138.833,260.5 137.167,260.5 135.5,260.5C 135.5,247.5 135.5,234.5 135.5,221.5 Z"/></g>
<g><path style="opacity:1" fill="#4e39ff" d="M 170.5,221.5 C 172.167,221.5 173.833,221.5 175.5,221.5C 175.5,234.5 175.5,247.5 175.5,260.5C 173.833,260.5 172.167,260.5 170.5,260.5C 170.5,247.5 170.5,234.5 170.5,221.5 Z"/></g>
<g><path style="opacity:1" fill="#412eff" d="M 183.5,222.5 C 185.223,221.193 187.057,221.193 189,222.5C 191.748,227.666 194.748,232.666 198,237.5C 201.394,233.102 204.394,228.435 207,223.5C 208.555,221.485 210.389,221.152 212.5,222.5C 208.833,228.5 205.167,234.5 201.5,240.5C 205.375,247.084 209.375,253.584 213.5,260C 211.559,260.743 209.726,260.576 208,259.5C 204.667,254.167 201.333,248.833 198,243.5C 194.667,248.833 191.333,254.167 188,259.5C 186.274,260.576 184.441,260.743 182.5,260C 186.625,253.584 190.625,247.084 194.5,240.5C 190.808,234.436 187.141,228.436 183.5,222.5 Z"/></g>
<g><path style="opacity:1" fill="#3928ff" d="M 225.5,256.5 C 231.645,257.49 237.978,257.823 244.5,257.5C 244.5,258.5 244.5,259.5 244.5,260.5C 236.833,260.5 229.167,260.5 221.5,260.5C 221.5,247.5 221.5,234.5 221.5,221.5C 229.167,221.5 236.833,221.5 244.5,221.5C 244.5,222.833 244.5,224.167 244.5,225.5C 238.167,225.5 231.833,225.5 225.5,225.5C 225.5,229.833 225.5,234.167 225.5,238.5C 231.167,238.5 236.833,238.5 242.5,238.5C 242.5,239.833 242.5,241.167 242.5,242.5C 236.833,242.5 231.167,242.5 225.5,242.5C 225.5,247.167 225.5,251.833 225.5,256.5 Z"/></g>
<g><path style="opacity:1" fill="#4a36ff" d="M 253.5,221.5 C 255.167,221.5 256.833,221.5 258.5,221.5C 258.5,233.167 258.5,244.833 258.5,256.5C 264.5,256.5 270.5,256.5 276.5,256.5C 276.5,257.833 276.5,259.167 276.5,260.5C 268.833,260.5 261.167,260.5 253.5,260.5C 253.5,247.5 253.5,234.5 253.5,221.5 Z"/></g>
<g><path style="opacity:1" fill="#422fff" d="M 293.5,221.5 C 298.599,221.175 303.599,221.675 308.5,223C 313.225,225.117 313.892,227.617 310.5,230.5C 309.307,228.473 307.64,226.973 305.5,226C 291.47,224.029 285.303,230.196 287,244.5C 288.605,254.772 294.438,258.605 304.5,256C 306.667,255.167 308.167,253.667 309,251.5C 309.497,248.854 309.664,246.187 309.5,243.5C 305.833,243.5 302.167,243.5 298.5,243.5C 298.5,242.167 298.5,240.833 298.5,239.5C 303.5,239.5 308.5,239.5 313.5,239.5C 313.5,246.5 313.5,253.5 313.5,260.5C 312.167,260.5 310.833,260.5 309.5,260.5C 309.66,258.801 309.494,257.134 309,255.5C 302.876,261.181 296.042,262.014 288.5,258C 284.058,253.251 282.058,247.584 282.5,241C 281.663,231.831 285.329,225.331 293.5,221.5 Z"/></g>
<g><path style="opacity:1" fill="#3a28ff" d="M 324.5,221.5 C 330.509,221.334 336.509,221.501 342.5,222C 349.053,224.73 351.22,229.563 349,236.5C 347.749,239.381 345.583,241.214 342.5,242C 343.667,243.167 344.833,244.333 346,245.5C 347.838,250.35 349.672,255.183 351.5,260C 349.741,260.798 348.074,260.631 346.5,259.5C 344.901,255.204 343.401,250.871 342,246.5C 341.167,245.667 340.333,244.833 339.5,244C 335.848,243.501 332.182,243.335 328.5,243.5C 328.5,249.167 328.5,254.833 328.5,260.5C 327.167,260.5 325.833,260.5 324.5,260.5C 324.5,247.5 324.5,234.5 324.5,221.5 Z"/></g>
<g><path style="opacity:1" fill="#3f2dff" d="M 368.5,221.5 C 371.394,221.042 373.894,221.709 376,223.5C 379.888,235.606 384.054,247.606 388.5,259.5C 386.955,260.452 385.288,260.785 383.5,260.5C 382.909,257.06 381.909,253.727 380.5,250.5C 374.833,249.167 369.167,249.167 363.5,250.5C 362.091,253.727 361.091,257.06 360.5,260.5C 358.712,260.785 357.045,260.452 355.5,259.5C 360.24,246.947 364.573,234.281 368.5,221.5 Z"/></g>
<g><path style="opacity:1" fill="#4431ff" d="M 429.5,260.5 C 429.832,249.813 429.499,239.146 428.5,228.5C 427.893,228.624 427.56,228.957 427.5,229.5C 424.106,239.514 420.606,249.514 417,259.5C 415.333,260.833 413.667,260.833 412,259.5C 408.333,249.167 404.667,238.833 401,228.5C 400.5,239.161 400.333,249.828 400.5,260.5C 399.167,260.5 397.833,260.5 396.5,260.5C 396.5,247.5 396.5,234.5 396.5,221.5C 398.792,221.244 400.959,221.577 403,222.5C 407.01,233.2 411.01,243.867 415,254.5C 418.735,243.795 422.568,233.129 426.5,222.5C 428.743,221.526 431.076,221.192 433.5,221.5C 433.5,234.5 433.5,247.5 433.5,260.5C 432.167,260.5 430.833,260.5 429.5,260.5 Z"/></g>
<g><path style="opacity:1" fill="#746aff" d="M 86.5,237.5 C 85.0267,236.929 83.36,236.929 81.5,237.5C 75.0488,227.009 67.3821,226.009 58.5,234.5C 57.1529,235.171 55.9862,235.171 55,234.5C 54.2917,235.381 53.4584,236.047 52.5,236.5C 58.1126,222.946 67.446,219.779 80.5,227C 83.4089,229.985 85.4089,233.485 86.5,237.5 Z"/></g>
<g><path style="opacity:1" fill="#7f74ff" d="M 84.5,219.5 C 90.4877,219.664 91.821,222.164 88.5,227C 82.4034,227.147 81.0701,224.647 84.5,219.5 Z"/></g>
<g><path style="opacity:1" fill="#fbfbff" d="M 140.5,225.5 C 144.846,225.334 149.179,225.501 153.5,226C 157.753,229.42 158.587,233.587 156,238.5C 155.097,239.701 153.931,240.535 152.5,241C 148.514,241.499 144.514,241.666 140.5,241.5C 140.5,236.167 140.5,230.833 140.5,225.5 Z"/></g>
<g><path style="opacity:1" fill="#f9f8ff" d="M 328.5,225.5 C 332.846,225.334 337.179,225.501 341.5,226C 346.821,230.285 346.821,234.619 341.5,239C 337.179,239.499 332.846,239.666 328.5,239.5C 328.5,234.833 328.5,230.167 328.5,225.5 Z"/></g>
<g><path style="opacity:1" fill="#f6f5ff" d="M 371.5,226.5 C 374.788,232.351 377.121,238.685 378.5,245.5C 374.167,245.5 369.833,245.5 365.5,245.5C 367.102,239.029 369.102,232.696 371.5,226.5 Z"/></g>
<g><path style="opacity:1" fill="#fbfaff" d="M 81.5,237.5 C 82.0043,246.529 77.8377,251.529 69,252.5C 59.1062,250.393 55.6062,244.393 58.5,234.5C 67.3821,226.009 75.0488,227.009 81.5,237.5 Z"/></g>
<g><path style="opacity:1" fill="#8c83ff" d="M 427.5,229.5 C 427.56,228.957 427.893,228.624 428.5,228.5C 429.499,239.146 429.832,249.813 429.5,260.5C 428.833,250.167 428.167,239.833 427.5,229.5 Z"/></g>
<g><path style="opacity:1" fill="#665aff" d="M 107.5,236.5 C 107.666,240.514 107.499,244.514 107,248.5C 106.768,249.737 106.268,250.737 105.5,251.5C 105.217,250.711 104.717,250.044 104,249.5C 102.855,249.619 101.688,249.952 100.5,250.5C 102.152,245.659 102.818,240.659 102.5,235.5C 103.337,235.389 104.337,235.056 105.5,234.5C 106.182,235.243 106.849,235.909 107.5,236.5 Z"/></g>
<g><path style="opacity:1" fill="#5e51ff" d="M 58.5,234.5 C 55.6062,244.393 59.1062,250.393 69,252.5C 77.8377,251.529 82.0043,246.529 81.5,237.5C 83.36,236.929 85.0267,236.929 86.5,237.5C 87.0521,249.784 81.2188,256.784 69,258.5C 56.8839,256.208 51.3839,248.875 52.5,236.5C 53.4584,236.047 54.2917,235.381 55,234.5C 55.9862,235.171 57.1529,235.171 58.5,234.5 Z"/></g>
<g><path style="opacity:1" fill="#6a5eff" d="M 225.5,256.5 C 232.167,256.5 238.833,256.5 245.5,256.5C 245.768,258.099 245.434,259.432 244.5,260.5C 244.5,259.5 244.5,258.5 244.5,257.5C 237.978,257.823 231.645,257.49 225.5,256.5 Z"/></g>
<g><path style="opacity:1" fill="#5a4bff" d="M 36.5,235.5 C 35.8735,246.623 39.2068,256.29 46.5,264.5C 44.2646,264.205 42.2646,264.539 40.5,265.5C 33.187,256.94 30.187,246.94 31.5,235.5C 33.1667,234.167 34.8333,234.167 36.5,235.5 Z"/></g>
<g><path style="opacity:1" fill="#4534ff" d="M 105.5,251.5 C 101.684,265.482 92.684,274.315 78.5,278C 63.2279,281.298 50.5612,277.131 40.5,265.5C 42.2646,264.539 44.2646,264.205 46.5,264.5C 55.0818,272.08 65.0818,274.913 76.5,273C 88.544,269.789 96.544,262.289 100.5,250.5C 101.688,249.952 102.855,249.619 104,249.5C 104.717,250.044 105.217,250.711 105.5,251.5 Z"/></g>
</svg>
